<svg version="1.0" xmlns="http://www.w3.org/2000/svg" width="682.667" height="682.667" viewBox="0 0 512 512"><path d="M168.4 72.2C157.6 93.6 19.7 374.7 19.7 375.5c0 .5 7.6 16.4 16.8 35.3L53.3 445l205.1-.2 205-.3 14.7-34.5 14.6-34.5-7.7-16c-4.2-8.8-37.3-78.2-73.5-154.3L345.7 67H171l-2.6 5.2zm242.7 151.1 70.6 148.2-83.9.3c-46.1.1-121.5.1-167.7 0l-83.9-.3 13.6-27.8 13.5-27.7h116.4c63.9 0 116.3-.4 116.3-.8 0-.5-19.8-42.9-44-94.3l-44-93.4-57.1-.5-57.1-.5-10-21.5C188.4 93.2 183 81.6 182 79.2l-1.9-4.2h160.4l70.6 148.3zm-225-115.7 10.7 23.3-70.1 150C88.1 363.4 56.3 431 56 431c-.3 0-6.6-12.5-14-27.8l-13.6-27.7L83.7 263c30.4-61.9 63-128.2 72.4-147.4 14-28.4 17.4-34.5 18.2-33.1.5 1 5.8 12.3 11.8 25.1zM308 135.7c0 .4-6 13.2-13.2 28.5l-13.3 27.7-29.3.3-29.4.3-25.9 55c-14.3 30.2-33.4 70.1-42.5 88.5-9.2 18.4-17.7 35.9-19 38.7L133 380h348.9l-4.3 10.2c-2.4 5.7-7.8 18.5-12.1 28.5l-7.7 18.3H260.4c-108.6 0-197.4-.2-197.4-.5 0-.4 139.7-299.2 140.7-300.8.5-.9 104.3-.9 104.3 0zm49 93.8c19.9 42.3 36.4 77.3 36.7 77.8.2.4-11.3.6-25.7.5l-26.2-.3-26.4-54.9c-14.5-30.2-26.4-55.5-26.4-56.2 0-1.1 18.2-40 24.2-51.8l2-4 2.8 5.9c1.5 3.3 19 40.6 39 83zM307 254l25.7 53.5-77 .3c-42.4.1-77.2 0-77.5-.2-.2-.3 10.9-24.6 24.9-54.1l25.2-53.5 26.5.2 26.5.3L307 254z"/></svg>